# xmcd
#
# Track frame offsets:
# 150
# 14182
# 29145
# 44737
# 60370
# 74237
# 94190
# 109562
# 124577
# 145087
# 159162
#
# Disc length: 2337 seconds
#
#
# Revision: 0
# Processed by: cddbd v1.5.1PL0 Copyright (c) Steve Scherf et al.
# Submitted via: FreeRIP 2.80 
#
DISCID=9f091f0b
DTITLE=Bobbie Degracia Mesa - Greatest Hits and 4
DYEAR=2003
DGENRE=Chamorro
TTITLE0=Palauan Chalan
TTITLE1=Ginen Guaha Para Hagu
TTITLE2=Mapus Y Linalahu
TTITLE3=UnUpus Yo Nene Gi Chalan
TTITLE4=I Na Pinite
TTITLE5=Oran Kate
TTITLE6=Guaha Hao Tumatane
TTITLE7=Nafatto Y Aluman
TTITLE8=Atrasao
TTITLE9=Biba Complianius
TTITLE10=Nana Mungga Kumate
EXTD=Submited by Alicia Adriano
EXTT0=
EXTT1=
EXTT2=
EXTT3=
EXTT4=
EXTT5=
EXTT6=
EXTT7=
EXTT8=
EXTT9=
EXTT10=
PLAYORDER=
